<?xml version="1.0" encoding="utf-8"?>
<!-- Generator: Adobe Illustrator 18.1.1, SVG Export Plug-In . SVG Version: 6.00 Build 0)  -->
<!DOCTYPE svg PUBLIC "-//W3C//DTD SVG 1.1//EN" "http://www.w3.org/Graphics/SVG/1.1/DTD/svg11.dtd">
<svg version="1.1" id="Layer_1" xmlns="http://www.w3.org/2000/svg" xmlns:xlink="http://www.w3.org/1999/xlink" x="0px" y="0px"
	 viewBox="0 0 720 720" enable-background="new 0 0 720 720" xml:space="preserve">
<g id="g8">
	<path id="path10" fill="#A90533" d="M133,482.8c-51.3-54.4-81.4-129.5-81.3-219.2c-0.1-79.3,24.8-147.4,67.7-199.3l-0.1,0h-90
		v418.5L133,482.8L133,482.8L133,482.8L133,482.8z"/>
	<path id="path12" fill="#A90533" d="M607.1,482.8c22.1-23.7,41.9-51.6,59.9-83.5l-99.6-49.8c-35,56.9-86.2,109.3-156.9,109.6
		c-103-0.3-143.5-88.4-143.2-201.8h384.9c0.5-12.8,0.5-18.7,0-24.9c2.5-67.4-15.4-124.1-47.9-168.3l-0.2,0.1h86.7v418.5h-83.7
		L607.1,482.8L607.1,482.8L607.1,482.8z"/>
	<path id="path14" fill="#A90533" d="M273.4,160.2c4.3-51.3,44.7-85.8,92.2-85.9c47.8,0.1,82.3,34.6,83.4,85.9H273.4L273.4,160.2z"
		/>
</g>
<g id="g16">
	<path id="path18" d="M84.1,553.6v-17.4H30.6v103.4h53.6v-17.4H50.5v-27.4h32.4v-17.4H50.5v-23.7L84.1,553.6L84.1,553.6L84.1,553.6z
		"/>
	<path id="path20" d="M175,596c13.4-2,20.7-15.2,21.2-28.6c-0.5-22-14.7-31.1-34.9-31.1h-27.4v103.4h19.9v-41.1l24.9,41.1h24.9
		L175,596L175,596z M153.9,552.4h2.5c10.9,0.4,19,2.9,18.7,16.2c0.3,12.2-7.5,15.5-18.7,14.9h-2.5V552.4L153.9,552.4z"/>
	<path id="path22" d="M266,536.2H246v103.4h48.6v-17.4H266L266,536.2L266,536.2z"/>
	<path id="path24" d="M396.7,618.4l8.7,21.2h21.2L388,533.7h-16.2l-41.1,105.9h21.2l8.7-21.2H396.7L396.7,618.4L396.7,618.4z
		 M391.8,602.2h-24.9l11.2-38.6L391.8,602.2L391.8,602.2z"/>
	<path id="path26" d="M464,639.6h21.2v-69.7l54.8,72.2h14.9V536.2h-21.2V606l-54.8-72.2H464V639.6L464,639.6L464,639.6z"/>
	<path id="path28" d="M642.1,584.8V601h22.4c-0.5,13-11.1,24-23.7,23.7c-19.8,0.4-29.6-18.8-29.9-36.1c0.3-17.1,9.9-37.1,29.9-37.4
		c10.5,0.3,19.3,7.4,23.7,16.2l17.4-8.7c-7.7-16.2-23.2-25.1-41.1-24.9c-30.9-0.2-50.7,25.3-51.1,54.8c0.4,28.8,19.6,54.4,49.8,54.8
		c32.6-0.4,47.7-26.4,47.3-56v-2.5H642.1L642.1,584.8L642.1,584.8L642.1,584.8z"/>
</g>
</svg>
