<?xml version="1.0" encoding="utf-8"?>
<!-- Generator: Adobe Illustrator 18.1.1, SVG Export Plug-In . SVG Version: 6.00 Build 0)  -->
<!DOCTYPE svg PUBLIC "-//W3C//DTD SVG 1.1//EN" "http://www.w3.org/Graphics/SVG/1.1/DTD/svg11.dtd">
<svg version="1.1" id="Layer_1" xmlns="http://www.w3.org/2000/svg" xmlns:xlink="http://www.w3.org/1999/xlink" x="0px" y="0px"
	 viewBox="0 0 600 600" enable-background="new 0 0 600 600" xml:space="preserve">
<g>
	<path fill="#F05133" d="M552.8,274.2l-231.1-231c-13.3-13.3-34.9-13.3-48.2,0l-48,48l60.9,60.9c14.1-4.8,30.4-1.6,41.6,9.7
		c11.3,11.3,14.5,27.7,9.6,41.9l58.7,58.7c14.2-4.9,30.6-1.7,41.9,9.6c15.8,15.8,15.8,41.5,0,57.3c-15.8,15.8-41.5,15.8-57.4,0
		c-11.9-11.9-14.9-29.4-8.8-44.1l-54.7-54.7l0,144c3.9,1.9,7.5,4.5,10.7,7.7c15.8,15.8,15.8,41.5,0,57.4
		c-15.8,15.8-41.5,15.8-57.3,0c-15.8-15.9-15.8-41.5,0-57.4c3.9-3.9,8.4-6.9,13.3-8.8V227.9c-4.8-2-9.4-4.9-13.3-8.8
		c-12-12-14.9-29.6-8.7-44.3l-60-60L43.6,273.1c-13.3,13.3-13.3,34.9,0,48.2l231.1,231c13.3,13.3,34.9,13.3,48.2,0l230-230
		C566.1,309.1,566.1,287.5,552.8,274.2z"/>
</g>
</svg>
