<?xml version="1.0" encoding="utf-8"?>
<!-- Generator: Adobe Illustrator 18.1.1, SVG Export Plug-In . SVG Version: 6.00 Build 0)  -->
<!DOCTYPE svg PUBLIC "-//W3C//DTD SVG 1.1//EN" "http://www.w3.org/Graphics/SVG/1.1/DTD/svg11.dtd">
<svg version="1.1" id="Layer_1" xmlns="http://www.w3.org/2000/svg" xmlns:xlink="http://www.w3.org/1999/xlink" x="0px" y="0px"
	 viewBox="0 0 720 720" enable-background="new 0 0 720 720" xml:space="preserve">
<path id="path8615" fill="#387DB7" d="M357.9,68.3c-148.9,0-139.6,64.6-139.6,64.6l0.2,67.9h142.1v19.1H162
	c0,0-95.3-10.8-95.3,139.4c0,150.2,83.2,144.9,83.2,144.9h49.6v-69.7c0,0-2.7-83.2,81.8-83.2s140.9,0,140.9,0s79.2,1.3,79.2-76.5
	s0-128.6,0-128.6S513.5,68.3,357.9,68.3z M279.5,113.3c14.1,0,25.6,11.4,25.6,25.6s-11.4,25.6-25.6,25.6S254,153,254,138.8
	S265.4,113.3,279.5,113.3z"/>
<path id="path8620" fill="#FFCD3C" d="M362.1,651.7c148.9,0,139.6-64.6,139.6-64.6l-0.2-66.9H359.5v-20.1H558
	c0,0,95.3,10.8,95.3-139.4c0-150.2-83.2-144.9-83.2-144.9h-49.6v69.7c0,0,2.7,83.2-81.8,83.2s-140.9,0-140.9,0s-79.2-1.3-79.2,76.5
	c0,77.8,0,128.6,0,128.6S206.5,651.7,362.1,651.7z M440.5,606.7c-14.1,0-25.6-11.4-25.6-25.6s11.4-25.6,25.6-25.6S466,567,466,581.2
	C466,595.3,454.6,606.7,440.5,606.7z"/>
</svg>
