<?xml version="1.0" encoding="utf-8"?>
<!-- Generator: Adobe Illustrator 18.1.1, SVG Export Plug-In . SVG Version: 6.00 Build 0)  -->
<!DOCTYPE svg PUBLIC "-//W3C//DTD SVG 1.1//EN" "http://www.w3.org/Graphics/SVG/1.1/DTD/svg11.dtd">
<svg version="1.1" id="Layer_1" xmlns="http://www.w3.org/2000/svg" xmlns:xlink="http://www.w3.org/1999/xlink" x="0px" y="0px"
	 viewBox="0 0 600 600" enable-background="new 0 0 600 600" xml:space="preserve">
<rect x="54.4" y="54.4" fill="#F7DF1E" width="491.3" height="491.3"/>
<path d="M384.4,438.2c9.9,16.2,22.8,28,45.5,28c19.1,0,31.3-9.6,31.3-22.8c0-15.8-12.6-21.4-33.6-30.6l-11.5-5
	c-33.3-14.2-55.4-32-55.4-69.6c0-34.6,26.4-61,67.6-61c29.4,0,50.5,10.2,65.7,37L458,337.3c-7.9-14.2-16.5-19.8-29.7-19.8
	c-13.5,0-22.1,8.6-22.1,19.8c0,13.8,8.6,19.5,28.4,28l11.5,4.9c39.2,16.8,61.4,34,61.4,72.5c0,41.6-32.6,64.3-76.5,64.3
	c-42.9,0-70.6-20.4-84.1-47.2L384.4,438.2z M221.3,442.2c7.3,12.9,13.8,23.7,29.7,23.7c15.2,0,24.7-5.9,24.7-29v-157h46.2v157.6
	c0,47.8-28,69.6-68.9,69.6c-37,0-58.4-19.1-69.3-42.2L221.3,442.2z"/>
</svg>
