<?xml version="1.0" encoding="utf-8"?>
<!-- Generator: Adobe Illustrator 18.1.1, SVG Export Plug-In . SVG Version: 6.00 Build 0)  -->
<!DOCTYPE svg PUBLIC "-//W3C//DTD SVG 1.1//EN" "http://www.w3.org/Graphics/SVG/1.1/DTD/svg11.dtd">
<svg version="1.1" id="Layer_1" xmlns="http://www.w3.org/2000/svg" xmlns:xlink="http://www.w3.org/1999/xlink" x="0px" y="0px"
	 viewBox="0 0 600 600" enable-background="new 0 0 600 600" xml:space="preserve">
<g>
	<path fill="#61DAFB" d="M582.5,300.1c0-37.4-46.9-72.9-118.7-94.9C480.3,132,473,73.7,440.5,55c-7.5-4.4-16.2-6.4-25.7-6.4v-0.1
		c-15.8,0-34.1,5.6-53.7,16.2c-19.5,10.5-40.4,26-61.4,45.5c-41.9-38.9-83.4-61.2-115-61.2V49c-4.8,0-9.5,0.5-13.8,1.6
		c-4.3,1.1-8.4,2.7-12.2,4.9c-32.4,18.6-39.6,76.8-22.9,149.8c-71.6,22.1-118.3,57.5-118.3,94.8c0,37.4,46.9,72.9,118.7,94.9
		c-16.6,73.2-9.2,131.5,23.3,150.1c7.5,4.4,16.2,6.4,25.9,6.4c31.7,0,73.1-22.6,115-61.7c41.9,38.9,83.4,61.3,115,61.3
		c9.7,0,18.4-2.1,26-6.4c32.4-18.6,39.6-76.8,22.9-149.8C535.8,372.8,582.5,337.4,582.5,300.1z M414.7,74.1v0.1c5.3,0,9.6,1,13.1,3
		c15.7,9,22.5,43.2,17.2,87.2c-1.3,10.8-3.3,22.2-5.9,33.9c-22.6-5.5-47.2-9.8-73.1-12.6c-15.6-21.3-31.7-40.6-47.9-57.6
		C355.5,93.3,390.7,74.2,414.7,74.1z M198,359c5.4,9.2,10.9,18.2,16.6,27c-16.4-2.4-32.1-5.4-47.2-9.1c4.3-14.9,9.6-30.2,15.6-45.5
		C187.6,340.6,192.6,349.8,198,359z M167,223.3c15.1-3.6,31-6.7,47.4-9.1c-5.6,8.9-11.3,18-16.6,27.3c-5.3,9.2-10.3,18.4-15,27.6
		C176.7,253.7,171.4,238.2,167,223.3z M196.4,300.4c7.1-15.4,15.2-30.9,23.8-45.9c9-15.6,18.2-30.3,27.7-44
		c17.2-1.5,34.5-2.3,52-2.3c17.4,0,34.8,0.8,51.8,2.2c9.6,13.7,18.9,28.3,27.9,43.7c8.8,15.1,16.7,30.4,24,45.8
		c-7.3,15.4-15.2,30.9-23.8,45.9c-9,15.6-18.2,30.3-27.7,44c-17.2,1.5-34.5,2.3-52.1,2.3c-17.4,0-34.8-0.8-51.8-2.2
		c-9.6-13.7-18.9-28.3-27.9-43.8C211.6,331.2,203.6,315.8,196.4,300.4z M402,358.7c5.3-9.2,10.3-18.5,15-27.7
		c6.2,15.4,11.5,30.9,15.9,45.8c-15.1,3.7-31,6.8-47.4,9.2C391.1,377.1,396.7,368,402,358.7z M401.9,241.1
		c-5.3-9.2-10.9-18.2-16.6-26.9c16.4,2.4,32.1,5.4,47.2,9.1c-4.3,14.9-9.6,30.2-15.6,45.5C412.3,259.5,407.3,250.3,401.9,241.1z
		 M331.7,183.2c-10.4-0.5-21-0.8-31.7-0.8c-10.8,0-21.5,0.2-32,0.8c10.4-13.5,21.1-25.8,31.7-36.8
		C310.4,157.4,321.1,169.7,331.7,183.2z M171.5,77.7c3.5-2.1,7.9-3,13.2-3v-0.1c23.8,0,59.2,19,96.7,53.7
		c-16.1,16.9-32.2,36.2-47.6,57.5c-26,2.8-50.7,7-73.2,12.7c-2.6-11.5-4.6-22.7-6-33.4C149.3,121,156,86.8,171.5,77.7z M142.5,370.1
		c-11.4-3.6-22.2-7.5-32.2-11.7c-40.8-17.4-67.1-40.2-67.1-58.3c0-18.1,26.4-41,67.1-58.3c9.9-4.3,20.7-8.1,31.9-11.6
		c6.6,22.6,15.2,46,25.9,70.1C157.4,324.2,148.9,347.6,142.5,370.1z M185.2,526c-5.2-0.1-9.6-1.2-13-3.1
		c-15.7-9-22.4-43.2-17.2-87.2c1.3-10.8,3.3-22.2,5.9-33.8c22.6,5.5,47.2,9.8,73.1,12.5c15.5,21.3,31.7,40.6,47.9,57.6
		C244.4,506.9,209.2,526,185.2,526z M300.2,453.8c-10.7-11.1-21.4-23.4-32-36.9c10.4,0.5,21,0.8,31.7,0.8c10.8,0,21.5-0.2,32-0.8
		C321.5,430.4,310.8,442.7,300.2,453.8z M428.5,522.4c-3.4,2.1-7.9,3-13.2,3c-23.8,0-59.2-19-96.7-53.7
		c16.1-16.9,32.2-36.2,47.6-57.5c26-2.8,50.7-7,73.2-12.7c2.7,11.6,4.7,22.8,6,33.5C450.7,479.1,444,513.3,428.5,522.4z
		 M489.6,358.3c-9.9,4.3-20.7,8.1-31.9,11.6c-6.6-22.6-15.2-46.1-25.9-70.1c10.6-24,19.1-47.3,25.6-69.8
		c11.4,3.6,22.2,7.5,32.4,11.7c40.8,17.4,67.1,40.2,67.1,58.3C556.8,318.1,530.4,341.1,489.6,358.3z"/>
	<path fill="#61DAFB" d="M184.6,48.9L184.6,48.9L184.6,48.9z"/>
	<circle fill="#61DAFB" cx="299.9" cy="300.1" r="52.6"/>
	<path fill="#61DAFB" d="M414.6,48.6L414.6,48.6L414.6,48.6z"/>
</g>
</svg>
